# This file uses centimeters as units for non-parametric coordinates.

mtllib stone.mtl
g default
v 1.554811 0.884782 -0.895238
v 2.160120 1.099118 -0.371919
v 1.686789 1.243609 -0.334322
v 1.119878 0.771870 -0.478063
v 1.518878 0.292838 -0.618147
v 2.158770 0.214258 -0.593597
v 2.208178 0.831496 0.447214
v 1.973914 1.264894 0.229560
v 1.179743 1.130719 0.433769
v 1.087333 0.539360 0.601511
v 1.654645 0.266761 0.722754
v 1.821569 0.969026 0.746646
v 1.503273 1.207262 -0.723607
v 1.865077 1.427558 -0.348703
v 2.003273 1.087372 -0.723607
v 1.790541 1.244080 -0.631476
v 1.194256 0.781936 -0.723607
v 1.056060 1.207262 -0.447214
v 1.251196 1.065487 -0.631476
v 1.503273 0.356611 -0.723607
v 1.056060 0.356611 -0.447214
v 1.251196 0.498386 -0.631476
v 2.003273 0.519071 -0.723607
v 1.865077 0.093746 -0.447214
v 1.790541 0.323143 -0.631476
v 2.365077 0.984098 -0.447214
v 2.123874 0.781937 -0.631476
v 1.641470 1.510023 0.000000
v 2.146866 1.470127 -0.120865
v 1.882672 1.524281 -0.196811
v 0.914666 1.105241 0.000000
v 1.120454 1.360436 0.000000
v 1.011966 1.222798 -0.149071
v 1.141470 0.093746 0.000000
v 0.945826 0.519071 0.000000
v 1.009994 0.323142 -0.149071
v 2.054530 0.122857 0.000000
v 1.641470 0.039822 0.000000
v 1.882672 0.095179 -0.149071
v 2.445090 1.025409 0.000000
v 2.450487 0.519071 0.000000
v 2.422017 0.984098 -0.149071
v 2.226880 1.207262 0.447214
v 2.273750 1.240731 0.149071
v 1.331799 1.329435 0.403931
v 1.400268 1.455870 0.149071
v 0.966047 0.781936 0.447214
v 0.959770 0.781936 0.149071
v 1.361833 0.149809 0.432867
v 1.400268 0.039592 0.149071
v 2.109572 0.356611 0.447214
v 2.139259 0.323143 0.149071
v 1.741491 1.148392 0.723607
v 2.007770 0.819141 0.723607
v 2.057061 1.059557 0.631476
v 1.375410 1.135282 0.802548
v 1.366318 1.236318 0.639309
v 1.410573 0.399297 0.744564
v 1.224693 0.783542 0.749620
v 1.793658 0.256841 0.715935
v 1.496006 0.191283 0.664674
v 1.969719 0.527748 0.631476
vt 1.000000 0.500000
vt 0.838104 0.676208
vt 0.088104 0.823792
vt 0.176208 0.500000
vt 0.088104 0.176208
vt 0.838104 0.323792
vt 0.676208 0.500000
vt 0.588104 0.823792
vt 0.338104 0.676208
vt 0.338104 0.323792
vt 0.588104 0.176208
vt 0.500000 0.500000
vt 0.030034 0.666667
vt 0.926208 0.800000
vt 0.926208 0.600000
vt 0.963104 0.695913
vt 0.088104 0.500000
vt 0.146174 0.666667
vt 0.088104 0.616140
vt 0.030034 0.333333
vt 0.146174 0.333333
vt 0.088104 0.383860
vt 0.926208 0.400000
vt 0.926208 0.200000
vt 0.963104 0.304087
vt 0.838104 0.500000
vt 0.896174 0.500000
vt 0.250000 1.000000
vt 0.750000 0.800000
vt 0.838104 0.883860
vt 0.250000 0.600000
vt 0.250000 0.800000
vt 0.213104 0.695913
vt 0.250000 0.200000
vt 0.250000 0.400000
vt 0.213104 0.304087
vt 0.750000 0.200000
vt 0.750000 1.000000
vt 0.838104 0.116140
vt 0.750000 0.600000
vt 0.750000 0.400000
vt 0.780034 0.500000
vt 0.646174 0.666667
vt 0.713104 0.695913
vt 0.426208 0.800000
vt 0.338104 0.883860
vt 0.338104 0.500000
vt 0.280034 0.500000
vt 0.426208 0.200000
vt 0.338104 0.116140
vt 0.646174 0.333333
vt 0.713104 0.304087
vt 0.530034 0.666667
vt 0.588104 0.500000
vt 0.588104 0.616140
vt 0.426208 0.600000
vt 0.463104 0.695913
vt 0.426208 0.400000
vt 0.396174 0.500000
vt 0.530034 0.333333
vt 0.463104 0.304087
vt 0.588104 0.383860
vt 1.030034 0.666667
vt 1.088104 0.823792
vt 1.088104 0.500000
vt 1.088104 0.616140
vt 1.030034 0.333333
vt 1.088104 0.383860
vt 1.088104 0.176208
vt 1.250000 1.000000
vn 0.396467 0.659214 -0.638945
vn 0.127390 0.531280 -0.837564
vn -0.000510 0.679546 -0.733633
vn 0.178012 0.786918 -0.590823
vn -0.405065 0.903506 -0.139996
vn 0.262957 0.889555 -0.373557
vn 0.573138 0.700837 -0.424666
vn -0.338756 0.759767 -0.554976
vn -0.485267 0.352567 -0.800133
vn -0.661002 0.241376 -0.710503
vn -0.522148 0.593505 -0.612465
vn -0.832046 0.085785 -0.548033
vn -0.496102 0.737980 -0.457458
vn -0.182311 0.937948 -0.294985
vn -0.546089 -0.234715 -0.804174
vn -0.394177 -0.286386 -0.873274
vn -0.411314 -0.408925 -0.814618
vn -0.551506 -0.314254 -0.772713
vn -0.422643 -0.594746 -0.683850
vn -0.711196 -0.299016 -0.636231
vn -0.829422 -0.088893 -0.551504
vn 0.109769 -0.441040 -0.890749
vn 0.123154 -0.379031 -0.917153
vn 0.062713 -0.429137 -0.901060
vn 0.051375 -0.485444 -0.872757
vn -0.068966 -0.527745 -0.846599
vn -0.043223 -0.569815 -0.820635
vn 0.042416 -0.695652 -0.717126
vn 0.529055 -0.007676 -0.848553
vn 0.420526 -0.000000 -0.907281
vn 0.491580 0.130303 -0.861029
vn 0.546198 0.062962 -0.835287
vn 0.619141 0.453734 -0.640929
vn 0.637784 0.267457 -0.722287
vn 0.618614 -0.014391 -0.785563
vn 0.382870 0.923158 -0.034485
vn 0.458762 0.577503 -0.675298
vn 0.005204 0.709401 -0.704786
vn 0.099426 0.986085 -0.133233
vn -0.564148 0.645788 -0.514485
vn -0.049357 0.972885 0.225961
vn 0.182929 0.856806 0.482100
vn -0.433716 0.899753 -0.048325
vn -0.113489 0.944831 -0.307270
vn -0.636901 0.662748 -0.393856
vn -0.688295 0.687033 -0.232887
vn -0.952992 -0.007058 -0.302913
vn -0.925160 0.376143 0.050954
vn -0.740698 0.597295 0.307580
vn -0.958349 -0.277863 0.066030
vn -0.965503 0.048919 -0.255757
vn -0.745442 -0.536253 -0.395915
vn -0.859933 -0.485313 -0.158072
vn -0.417270 -0.816037 -0.399963
vn -0.765233 -0.641725 -0.051058
vn -0.888383 -0.408643 0.209254
vn 0.068382 -0.992527 0.101065
vn -0.223582 -0.948096 -0.226110
vn 0.001195 -0.986430 -0.164177
vn 0.093954 -0.995573 0.002705
vn 0.302993 -0.950672 -0.066473
vn 0.222063 -0.961526 0.161726
vn 0.191442 -0.952336 0.237500
vn 0.986005 -0.098083 -0.134810
vn 0.937582 -0.135721 -0.320189
vn 0.946600 -0.001557 -0.322406
vn 0.985985 0.082275 -0.145135
vn 0.513682 0.841051 -0.169597
vn 0.947216 0.094853 0.306242
vn 0.940436 0.010023 0.339823
vn 0.930950 0.363914 -0.029988
vn 0.826738 0.470630 -0.308239
vn 0.743499 0.652653 -0.145784
vn 0.795213 0.581737 0.170935
vn 0.178076 0.902363 0.392467
vn 0.784717 0.429182 0.447239
vn 0.911071 0.137228 0.388739
vn -0.028993 0.999567 -0.004976
vn -0.238129 0.829410 -0.505345
vn -0.438304 0.885411 -0.154718
vn -0.144803 0.980790 0.130703
vn -0.590860 0.719793 0.364393
vn -0.265661 0.838720 0.475366
vn 0.201781 0.827157 0.524496
vn -0.995470 0.091084 -0.027261
vn -0.967836 -0.051449 -0.246263
vn -0.986563 -0.096864 -0.131574
vn -0.999427 0.014145 0.030757
vn -0.965416 -0.203340 0.163172
vn -0.968752 0.032913 0.245840
vn -0.896983 0.302871 0.322011
vn -0.328107 -0.943737 -0.041317
vn -0.101370 -0.939943 -0.325931
vn -0.040049 -0.987683 -0.151256
vn -0.194181 -0.976950 0.088675
vn 0.122453 -0.940154 0.317988
vn -0.273521 -0.882397 0.382834
vn -0.580909 -0.715338 0.388376
vn 0.651092 -0.734712 0.190468
vn 0.702112 -0.701656 0.121318
vn 0.764350 -0.582063 0.277436
vn 0.691710 -0.652123 0.310279
vn 0.796505 -0.382579 0.468202
vn 0.660324 -0.624108 0.417685
vn 0.505892 -0.788463 0.349857
vn 0.626338 0.119321 0.770365
vn 0.778067 0.008061 0.628130
vn 0.385260 0.726291 0.569278
vn 0.484415 0.548364 0.681645
vn 0.135574 0.893373 0.428373
vn 0.214022 0.753380 0.621782
vn 0.336358 0.272026 0.901590
vn 0.169625 0.861180 0.479162
vn 0.167859 0.934440 0.314079
vn 0.006299 0.937577 0.347722
vn -0.078482 0.896394 0.436256
vn -0.728513 0.581108 0.362742
vn -0.088052 0.643628 0.760257
vn 0.151819 0.579980 0.800359
vn -0.285918 0.090536 0.953968
vn -0.770417 0.371573 0.518066
vn -0.749173 0.218027 0.625464
vn -0.379088 0.054238 0.923770
vn -0.621333 -0.120124 0.774284
vn -0.144788 -0.092458 0.985134
vn 0.028935 -0.077133 0.996601
vn -0.225295 -0.327038 0.917763
vn -0.585518 -0.585758 0.560408
vn -0.574285 -0.607645 0.548601
vn -0.204503 -0.400109 0.893360
vn 0.514688 -0.673565 -0.530479
vn 0.039367 -0.129520 0.990795
vn 0.030525 -0.117397 0.992616
vn 0.546281 -0.438033 0.713935
vn 0.627975 -0.574515 0.524957
vn 0.729823 -0.309825 0.609398
vn 0.587241 -0.237089 0.773910
vn 0.750711 -0.209221 0.626626
vn 0.532668 -0.174786 0.828079
vn 0.323292 -0.135880 0.936493
s 1
g pPlatonic1
usemtl lambert2SG
f 15/15/1 1/1/2 13/63/3 16/16/4
f 13/63/3 3/64/5 14/14/6 16/16/4
f 14/14/6 2/2/7 15/15/1 16/16/4
s 2
f 13/63/8 1/1/9 17/65/10 19/66/11
f 17/17/10 4/4/12 18/18/13 19/19/11
f 18/18/13 3/3/14 13/13/8 19/19/11
s 3
f 17/65/15 1/1/16 20/67/17 22/68/18
f 20/20/17 5/5/19 21/21/20 22/22/18
f 21/21/20 4/4/21 17/17/15 22/22/18
s 4
f 20/67/22 1/1/23 23/23/24 25/25/25
f 23/23/24 6/6/26 24/24/27 25/25/25
f 24/24/27 5/69/28 20/67/22 25/25/25
s 5
f 23/23/29 1/1/30 15/15/31 27/27/32
f 15/15/31 2/2/33 26/26/34 27/27/32
f 26/26/34 6/6/35 23/23/29 27/27/32
s 6
f 29/29/36 2/2/37 14/14/38 30/30/39
f 14/14/38 3/64/40 28/70/41 30/30/39
f 28/70/41 8/8/42 29/29/36 30/30/39
s 7
f 32/32/43 3/3/44 18/18/45 33/33/46
f 18/18/45 4/4/47 31/31/48 33/33/46
f 31/31/48 9/9/49 32/32/43 33/33/46
s 8
f 35/35/50 4/4/51 21/21/52 36/36/53
f 21/21/52 5/5/54 34/34/55 36/36/53
f 34/34/55 10/10/56 35/35/50 36/36/53
s 9
f 38/38/57 5/69/58 24/24/59 39/39/60
f 24/24/59 6/6/61 37/37/62 39/39/60
f 37/37/62 11/11/63 38/38/57 39/39/60
s 10
f 41/41/64 6/6/65 26/26/66 42/42/67
f 26/26/66 2/2/68 40/40/69 42/42/67
f 40/40/69 7/7/70 41/41/64 42/42/67
s 11
f 40/40/71 2/2/72 29/29/73 44/44/74
f 29/29/73 8/8/75 43/43/76 44/44/74
f 43/43/76 7/7/77 40/40/71 44/44/74
s 12
f 28/28/78 3/3/79 32/32/80 46/46/81
f 32/32/80 9/9/82 45/45/83 46/46/81
f 45/45/83 8/8/84 28/28/78 46/46/81
s 13
f 31/31/85 4/4/86 35/35/87 48/48/88
f 35/35/87 10/10/89 47/47/90 48/48/88
f 47/47/90 9/9/91 31/31/85 48/48/88
s 14
f 34/34/92 5/69/93 38/38/94 50/50/95
f 38/38/94 11/11/96 49/49/97 50/50/95
f 49/49/97 10/10/98 34/34/92 50/50/95
s 15
f 37/37/99 6/6/100 41/41/101 52/52/102
f 41/41/101 7/7/103 51/51/104 52/52/102
f 51/51/104 11/11/105 37/37/99 52/52/102
s 16
f 54/54/106 7/7/107 43/43/108 55/55/109
f 43/43/108 8/8/110 53/53/111 55/55/109
f 53/53/111 12/12/112 54/54/106 55/55/109
s 17
f 53/53/113 8/8/114 45/45/115 57/57/116
f 45/45/115 9/9/117 56/56/118 57/57/116
f 56/56/118 12/12/119 53/53/113 57/57/116
s 18
f 56/56/120 9/9/121 47/47/122 59/59/123
f 47/47/122 10/10/124 58/58/125 59/59/123
f 58/58/125 12/12/126 56/56/120 59/59/123
s 19
f 58/58/127 10/10/128 49/49/129 61/61/130
f 49/49/129 11/11/131 60/60/132 61/61/130
f 60/60/132 12/12/133 58/58/127 61/61/130
s 20
f 60/60/134 11/11/135 51/51/136 62/62/137
f 51/51/136 7/7/138 54/54/139 62/62/137
f 54/54/139 12/12/140 60/60/134 62/62/137
